<?xml version="1.0" encoding="UTF-8" standalone="no"?>
<svg width="176px" height="33px" viewBox="0 0 176 33" version="1.1" xmlns="http://www.w3.org/2000/svg" xmlns:xlink="http://www.w3.org/1999/xlink" xmlns:sketch="http://www.bohemiancoding.com/sketch/ns">
    <!-- Generator: Sketch 3.1.1 (8761) - http://www.bohemiancoding.com/sketch -->
    <title>logo</title>
    <desc>Created with Sketch.</desc>
    <defs></defs>
    <g id="header" stroke="none" stroke-width="1" fill="none" fill-rule="evenodd" sketch:type="MSPage">
        <g id="fold" sketch:type="MSArtboardGroup" transform="translate(-85.000000, -10.000000)">
            <g id="header" sketch:type="MSLayerGroup" transform="translate(0.000000, -1.000000)">
                <g id="logo" transform="translate(85.000000, 12.000000)" sketch:type="MSShapeGroup">
                    <g id="segment" transform="translate(0.000000, 3.478261)" fill="#333333">
                        <path d="M1.4224375,16.5154783 C2.5059375,17.5088696 4.0638125,18.4 5.553625,18.4 C6.637125,18.4 7.8560625,17.92 7.8560625,16.6184348 C7.8560625,15.1791304 6.197125,14.9398261 4.334,14.1168696 C2.234375,13.1916522 0.4736875,12.0612174 0.4736875,9.35373913 C0.4736875,5.82469565 3.2841875,4.31652174 6.771875,4.31652174 C8.668,4.31652174 10.70025,4.76173913 12.156375,5.72104348 L12.156375,6.13217391 L10.802,8.83895652 C9.8539375,8.11965217 8.5669375,7.63965217 7.1445,7.63965217 C5.891875,7.63965217 5.1129375,8.15373913 5.1129375,9.14713043 C5.1129375,10.4493913 6.60275,10.7234783 8.4651875,11.4427826 C11.0385,12.4361739 12.596375,13.5332174 12.596375,16.3081739 C12.596375,19.9401739 9.785875,21.5165217 6.061,21.5165217 C3.6905,21.5165217 1.794375,20.8653913 -0.0006875,19.4949565 L-0.0006875,19.0838261 L1.4224375,16.5154783 L1.4224375,16.5154783 Z" id="Shape"></path>
                        <path d="M21.4355625,21.5186087 C15.915625,21.5186087 13.68125,17.6466087 13.68125,12.8153043 C13.68125,8.05286957 15.7471875,4.31791304 21.1990625,4.31791304 C26.448125,4.31791304 28.3105625,7.74469565 28.3105625,12.1989565 C28.3105625,12.7130435 28.175125,13.6382609 27.971625,14.1864348 C26.684625,14.1864348 18.794875,14.1182609 18.4559375,14.1182609 C18.489625,15.933913 19.2685625,18.3325217 21.978,18.3325217 C23.3660625,18.3325217 24.517625,17.6132174 25.53375,16.5168696 L27.46425,18.7095652 L27.46425,19.1206957 C25.837625,20.5593043 23.9415,21.5186087 21.4355625,21.5186087 L21.4355625,21.5186087 Z M21.198375,7.67582609 C19.5394375,7.67582609 18.5906875,8.97808696 18.489625,11.6848696 C18.86225,11.6848696 23.568875,11.581913 23.7386875,11.581913 C23.738,9.01217391 22.99275,7.67582609 21.198375,7.67582609 L21.198375,7.67582609 Z" id="Shape"></path>
                        <path d="M44.4956875,7.88104348 L44.4956875,21.757913 C44.4956875,26.4862609 40.9743125,28.4737391 37.1133125,28.4737391 C34.9463125,28.4737391 32.6095,27.8914783 30.78075,26.7951304 L31.9996875,23.7453913 L32.406,23.7453913 C33.6249375,24.5676522 35.149125,25.1158261 36.60525,25.1158261 C38.603125,25.1158261 39.7203125,24.0876522 39.7203125,22.306087 C39.7203125,22.032 39.8220625,20.4556522 39.8894375,19.4963478 L39.754,19.4281739 C38.6024375,20.4904348 37.214375,21.4838261 35.31825,21.4838261 C30.679,21.4838261 29.5618125,17.2006957 29.5618125,12.8146087 C29.5618125,8.53147826 31.2888125,4.31721739 35.42,4.31721739 C37.24875,4.31721739 38.704875,5.13947826 39.9238125,6.2706087 L40.0255625,6.20173913 L40.3645,5.00243478 L40.737125,4.65947826 L44.5974375,4.76243478 C44.56375,5.10608696 44.4956875,6.85356522 44.4956875,7.88104348 L44.4956875,7.88104348 Z M39.7546875,9.25147826 C39.0094375,8.39513043 37.994,7.88104348 37.079625,7.88104348 C34.810875,7.88104348 34.54,10.9648696 34.54,12.8153043 C34.54,14.8368696 34.64175,18.2288696 36.7750625,18.2288696 C37.723125,18.2288696 38.908375,17.4406957 39.6873125,16.4473043 C39.6873125,16.1043478 39.7546875,9.62852174 39.7546875,9.25147826 L39.7546875,9.25147826 Z" id="Shape"></path>
                        <path d="M64.813375,21.0726957 C64.813375,20.7645217 64.9488125,10.5878261 64.9488125,10.2796522 C64.9488125,8.56626087 64.5088125,7.91513043 63.459,7.91513043 C62.6800625,7.91513043 61.5965625,8.36034783 60.75025,9.04556522 L60.75025,21.0726957 L56.0773125,21.0726957 C56.0773125,20.7645217 56.145375,10.5878261 56.145375,10.2796522 C56.145375,8.56626087 55.7390625,7.91513043 54.7573125,7.91513043 C53.9446875,7.91513043 52.8268125,8.39513043 51.9805,9.08034783 L52.0141875,21.0726957 L47.2058125,21.0726957 L47.2058125,8.9773913 C47.2058125,7.81217391 47.1384375,5.48243478 47.1040625,4.76313043 L51.0998125,4.66017391 L51.4724375,5.00313043 L51.709625,6.33947826 L51.777,6.37356522 C53.233125,5.17426087 55.2646875,4.352 56.9916875,4.352 C58.3460625,4.352 59.6330625,4.96904348 60.2765625,6.44243478 C61.9355,5.14017391 64.0695,4.352 65.7965,4.352 C67.997875,4.352 69.724875,5.72243478 69.724875,9.2173913 C69.724875,9.56034783 69.623125,20.7304348 69.623125,21.0726957 L64.813375,21.0726957 L64.813375,21.0726957 Z" id="Shape"></path>
                        <path d="M79.442,21.5186087 C73.9220625,21.5186087 71.6876875,17.6466087 71.6876875,12.8153043 C71.6876875,8.05286957 73.753625,4.31791304 79.2055,4.31791304 C84.4545625,4.31791304 86.317,7.74469565 86.317,12.1989565 C86.317,12.7130435 86.1815625,13.6382609 85.9780625,14.1864348 C84.6910625,14.1864348 76.8013125,14.1182609 76.462375,14.1182609 C76.4960625,15.933913 77.275,18.3325217 79.9844375,18.3325217 C81.3725,18.3325217 82.5240625,17.6132174 83.5401875,16.5168696 L85.4706875,18.7095652 L85.4706875,19.1206957 C83.8440625,20.5593043 81.9479375,21.5186087 79.442,21.5186087 L79.442,21.5186087 Z M79.2048125,7.67582609 C77.545875,7.67582609 76.597125,8.97808696 76.4960625,11.6848696 C76.8686875,11.6848696 81.5753125,11.581913 81.745125,11.581913 C81.7444375,9.01217391 80.999875,7.67582609 79.2048125,7.67582609 L79.2048125,7.67582609 Z" id="Shape"></path>
                        <path d="M97.3548125,21.0726957 C97.3548125,20.7645217 97.49025,10.5878261 97.49025,10.2796522 C97.49025,8.53217391 97.0839375,7.91513043 95.932375,7.91513043 C95.0860625,7.91513043 93.8664375,8.46330435 92.9520625,9.08034783 L92.98575,21.0726957 L88.177375,21.0726957 L88.177375,8.9773913 C88.177375,7.77808696 88.11,5.48243478 88.075625,4.76313043 L92.071375,4.66017391 L92.444,5.00313043 L92.6811875,6.33947826 L92.74925,6.37356522 C94.27275,5.24313043 96.474125,4.352 98.2685,4.352 C100.53725,4.352 102.26425,5.72243478 102.26425,9.2173913 C102.26425,9.56034783 102.1625,20.7304348 102.1625,21.0726957 L97.3548125,21.0726957 L97.3548125,21.0726957 Z" id="Shape"></path>
                        <path d="M110.290813,21.0726957 C106.057875,21.0726957 105.753313,18.605913 105.753313,16.2073043 C105.753313,15.8643478 105.753313,11.410087 105.821375,8.18921739 C104.771563,8.22330435 104.094375,8.22330435 103.756125,8.22330435 L103.789813,4.76243478 C104.12875,4.76243478 104.771563,4.76243478 105.821375,4.79652174 C105.787688,2.912 105.753313,0.479304348 105.753313,0.171130435 L106.09225,-0.171826087 L110.562375,-0.171826087 C110.562375,0.136347826 110.562375,2.19269565 110.495,4.79652174 C111.68025,4.76243478 113.271813,4.76243478 113.610063,4.76243478 L113.542688,8.22330435 C113.20375,8.22330435 111.68025,8.22330435 110.495,8.18921739 C110.528688,11.3071304 110.528688,15.3161739 110.528688,15.6243478 C110.528688,17.3377391 110.562375,17.68 112.052188,17.68 L113.372875,17.68 L113.440938,20.7297391 L113.102,21.0726957 L110.290813,21.0726957 L110.290813,21.0726957 Z" id="Shape"></path>
                    </g>
                    <g id="fault" transform="translate(115.500000, 0.000000)" fill="#009A61">
                        <path d="M2.1209375,24.5509565 C2.1209375,24.208 2.189,14.8883478 2.2226875,11.6674783 C1.3083125,11.7015652 0.36025,11.7015652 0.089375,11.7015652 L0.1230625,8.24069565 C0.3939375,8.24069565 1.3083125,8.24069565 2.189,8.27478261 C2.189,8.13773913 2.1209375,5.29391304 2.1209375,5.19095652 C2.1209375,1.31895652 4.356,-0.120347826 7.26825,-0.120347826 C8.520875,-0.120347826 9.807875,0.0855652174 11.094875,0.63373913 L11.094875,1.14782609 L10.113125,3.88869565 C9.571375,3.58052174 8.9615625,3.40869565 8.4198125,3.40869565 C7.47175,3.40869565 6.8619375,3.88869565 6.8619375,5.70434783 C6.8619375,6.3213913 6.895625,8.13704348 6.895625,8.27408696 C7.91175,8.24 9.8415625,8.24 10.1124375,8.24 L10.07875,11.7008696 C9.807875,11.7008696 7.877375,11.7008696 6.8619375,11.6667826 C6.93,14.8876522 6.93,24.2073043 6.93,24.5502609 L2.1209375,24.5502609 L2.1209375,24.5509565 Z" id="Shape"></path>
                        <path d="M21.08425,24.5509565 L20.7453125,24.208 L20.339,22.9057391 L20.2035625,22.8716522 C18.7474375,24.208 17.1221875,24.9961739 15.1243125,24.9961739 C11.5011875,24.9961739 10.8576875,21.8441739 10.8576875,19.9937391 C10.8576875,14.7172174 15.3278125,14.4083478 20.00075,14.1342609 L20.00075,13.072 C20.00075,11.5645217 19.019,11.1874783 17.83375,11.1874783 C15.734125,11.1874783 13.8043125,11.8726957 12.65275,12.317913 L11.6029375,9.57704348 L11.6029375,9.16591304 C14.6843125,8.03547826 17.359375,7.79547826 19.2218125,7.79547826 C22.5740625,7.79547826 24.7754375,9.2 24.7754375,12.8667826 L24.7754375,20.6107826 C24.7754375,21.9471304 24.8435,23.8657391 24.8771875,24.5509565 L21.08425,24.5509565 L21.08425,24.5509565 Z M20.0344375,16.7046957 C16.8513125,16.7728696 15.46325,16.8076522 15.46325,19.3773913 C15.46325,20.5766957 15.7678125,21.7071304 17.0548125,21.7071304 C17.8674375,21.7071304 18.9853125,21.261913 20.00075,20.1996522 C20.00075,19.9937391 20.0688125,16.9446957 20.0688125,16.7387826 L20.0344375,16.7046957 L20.0344375,16.7046957 Z" id="Shape"></path>
                        <path d="M37.9135625,24.5509565 L37.574625,24.208 L37.1683125,22.8375652 L37.032875,22.8034783 C35.2385,24.5168696 33.375375,24.9961739 31.5129375,24.9961739 C29.0406875,24.9961739 27.2463125,23.6257391 27.2463125,20.1307826 C27.2463125,19.7878261 27.3480625,8.58365217 27.3480625,8.24069565 L31.8181875,8.24069565 L32.157125,8.58365217 C32.157125,8.96069565 32.055375,18.7944348 32.055375,19.2396522 C32.055375,20.4730435 32.4616875,21.6382609 33.680625,21.6382609 C34.69675,21.6382609 36.051125,20.9530435 36.86375,20.0966957 L36.7956875,8.2413913 L41.2658125,8.2413913 L41.60475,8.58434783 L41.60475,20.6114783 C41.60475,21.9478261 41.6728125,23.8664348 41.7065,24.5516522 L37.9135625,24.5516522 L37.9135625,24.5509565 Z" id="Shape"></path>
                        <path d="M49.0545,20.6107826 C49.0545,21.9130435 49.1225625,23.8657391 49.1899375,24.5509565 L44.3815625,24.5509565 C44.3135,23.8657391 44.246125,21.9123478 44.246125,20.6107826 L44.246125,4.40347826 C44.246125,3.10121739 44.2124375,1.14852174 44.144375,0.463304348 L48.7155625,0.32626087 L49.0545,0.669217391 L49.0545,20.6107826 L49.0545,20.6107826 Z" id="Shape"></path>
                        <path d="M57.182125,24.5509565 C52.9491875,24.5509565 52.644625,22.0841739 52.644625,19.6855652 C52.644625,19.3426087 52.644625,14.8883478 52.7126875,11.6674783 C51.662875,11.7015652 50.9856875,11.7015652 50.6474375,11.7015652 L50.681125,8.24069565 C51.0200625,8.24069565 51.662875,8.24069565 52.7126875,8.27478261 C52.679,6.39026087 52.644625,3.95756522 52.644625,3.6493913 L52.9835625,3.30643478 L57.4536875,3.30643478 C57.4536875,3.6146087 57.4536875,5.67095652 57.3863125,8.27478261 C58.5715625,8.24069565 60.163125,8.24069565 60.501375,8.24069565 L60.434,11.7015652 C60.0950625,11.7015652 58.5715625,11.7015652 57.3863125,11.6674783 C57.42,14.7853913 57.42,18.7944348 57.42,19.1026087 C57.42,20.816 57.4536875,21.1582609 58.9435,21.1582609 L60.2641875,21.1582609 L60.33225,24.208 L59.9933125,24.5509565 L57.182125,24.5509565 L57.182125,24.5509565 Z" id="Shape"></path>
                    </g>
                </g>
            </g>
        </g>
    </g>
</svg>