<?xml version="1.0" encoding="UTF-8"?>
<svg width="32px" height="32px" viewBox="0 0 32 32" version="1.1" xmlns="http://www.w3.org/2000/svg" xmlns:xlink="http://www.w3.org/1999/xlink">
    <!-- Generator: Sketch 59.1 (86144) - https://sketch.com -->
    <title>06</title>
    <desc>Created with Sketch.</desc>
    <defs>
        <polygon id="path-1" points="1.23905667e-05 0.03648 24.9145827 0.03648 24.9145827 30.9458703 1.23905667e-05 30.9458703"></polygon>
    </defs>
    <g id="06" stroke="none" stroke-width="1" fill="none" fill-rule="evenodd">
        <g id="编组" transform="translate(3.000000, 0.000000)">
            <g transform="translate(0.000000, 0.076574)">
                <mask id="mask-2" fill="white">
                    <use xlink:href="#path-1"></use>
                </mask>
                <g id="Clip-2"></g>
                <path d="M10.8593845,12.4219369 C12.0299068,9.41036047 13.5009656,5.770944 14.2558645,3.81356047 C15.4006362,0.845579294 18.9752245,-0.117583059 21.2942456,2.05404988 C24.4636009,5.02191812 20.9550833,9.71778635 19.3263586,13.6918475 C19.3263586,13.6918475 23.7999586,14.4238193 23.555328,19.4940875 C23.555328,19.4940875 27.7785374,24.7684405 21.3367115,28.5537769 C16.1064056,31.6270193 6.44553035,31.7384922 2.74139859,28.8911322 C-0.830140235,26.1457581 -0.549707294,22.9860028 1.51779388,9.56655812 C1.90642447,7.04446871 2.24084329,4.94026165 2.738688,3.36845929 C4.27785035,-1.49207718 10.7387633,-0.904331294 11.0652762,4.28000753 C11.2349139,6.97241224 10.2349327,9.81164047 9.80733741,12.4473487 L10.8593845,12.4219369 Z" id="Fill-1" fill="#00BDFF" mask="url(#mask-2)"></path>
            </g>
            <path d="M7.84702871,21.5271868 C7.84702871,23.6180668 6.68554165,25.3129751 5.25288282,25.3129751 C3.820224,25.3129751 2.65873694,23.6180668 2.65873694,21.5271868 C2.65873694,19.4364198 3.820224,17.7415115 5.25288282,17.7415115 C6.68554165,17.7415115 7.84702871,19.4364198 7.84702871,21.5271868" id="Fill-3" fill="#FFFFFF"></path>
            <path d="M13.812288,21.5271868 C13.812288,23.6180668 12.6509139,25.3129751 11.2182551,25.3129751 C9.78559624,25.3129751 8.62410918,23.6180668 8.62410918,21.5271868 C8.62410918,19.4364198 9.78559624,17.7415115 11.2182551,17.7415115 C12.6509139,17.7415115 13.812288,19.4364198 13.812288,21.5271868" id="Fill-5" fill="#FFFFFF"></path>
            <path d="M7.58629271,21.5224433 C7.58629271,23.0253515 6.79999624,24.2435351 5.82994447,24.2435351 C4.86000565,24.2435351 4.07359624,23.0253515 4.07359624,21.5224433 C4.07359624,20.019648 4.86000565,18.8013515 5.82994447,18.8013515 C6.79999624,18.8013515 7.58629271,20.019648 7.58629271,21.5224433" id="Fill-7" fill="#0B2051"></path>
            <path d="M13.4798569,21.5224433 C13.4798569,23.0253515 12.6934475,24.2435351 11.7235087,24.2435351 C10.7534569,24.2435351 9.96716047,23.0253515 9.96716047,21.5224433 C9.96716047,20.019648 10.7534569,18.8013515 11.7235087,18.8013515 C12.6934475,18.8013515 13.4798569,20.019648 13.4798569,21.5224433" id="Fill-9" fill="#0B2051"></path>
            <path d="M9.04989741,25.3568188 C8.93921506,25.7419482 8.58424094,26.0237365 8.16342212,26.0237365 C7.74079624,26.0237365 7.38457976,25.7394635 7.27559153,25.3516235" id="Stroke-11" stroke="#0B2051" stroke-width="0.6" stroke-linecap="round" stroke-linejoin="round"></path>
        </g>
    </g>
</svg>