<?xml version="1.0" encoding="UTF-8"?>
<svg width="32px" height="32px" viewBox="0 0 32 32" version="1.1" xmlns="http://www.w3.org/2000/svg" xmlns:xlink="http://www.w3.org/1999/xlink">
    <!-- Generator: Sketch 59.1 (86144) - https://sketch.com -->
    <title>05</title>
    <desc>Created with Sketch.</desc>
    <g id="05" stroke="none" stroke-width="1" fill="none" fill-rule="evenodd">
        <g id="message-fill" fill-rule="nonzero">
            <rect id="矩形" fill="#000000" opacity="0" x="0" y="0" width="32" height="32"></rect>
            <path d="M28.884375,10.575 C28.18125,8.896875 27.16875,7.390625 25.88125,6.096875 C24.59375,4.80625 23.090625,3.790625 21.4125,3.0875 C19.696875,2.365625 17.878125,2 16,2 L15.9375,2 C14.046875,2.009375 12.21875,2.384375 10.496875,3.121875 C8.834375,3.834375 7.34375,4.846875 6.06875,6.1375 C4.79375,7.428125 3.79375,8.928125 3.1,10.6 C2.384375,12.33125 2.021875,14.171875 2.0310727,16.065625 C2.040625,18.234375 2.559375,20.3875 3.528125,22.3125 L3.528125,27.0625 C3.528125,27.85625 4.171875,28.5 4.9625,28.5 L9.70625,28.5 C11.628125,29.471875 13.775,29.990625 15.940625,30 L16.00625,30 C17.875,30 19.684375,29.6375 21.390625,28.928125 C23.059375,28.23125 24.559375,27.23125 25.84375,25.953125 C27.13125,24.675 28.14375,23.18125 28.853125,21.515625 C29.5875,19.790625 29.9625,17.95625 29.9719531,16.0625 C29.978125,14.159375 29.609375,12.3125 28.884375,10.575 Z M9.7625,17.5 C8.9375,17.5 8.265625,16.828125 8.265625,16 C8.265625,15.171875 8.9375,14.5 9.7625,14.5 C10.5875,14.5 11.259375,15.171875 11.259375,16 C11.259375,16.828125 10.590625,17.5 9.7625,17.5 Z M16,17.5 C15.175,17.5 14.503125,16.828125 14.503125,16 C14.503125,15.171875 15.175,14.5 16,14.5 C16.825,14.5 17.496875,15.171875 17.496875,16 C17.496875,16.828125 16.825,17.5 16,17.5 Z M22.2375,17.5 C21.4125,17.5 20.740625,16.828125 20.740625,16 C20.740625,15.171875 21.4125,14.5 22.2375,14.5 C23.0625,14.5 23.734375,15.171875 23.734375,16 C23.734375,16.828125 23.0625,17.5 22.2375,17.5 Z" id="形状" fill="#1AC2C4"></path>
        </g>
    </g>
</svg>