<?xml version="1.0" encoding="UTF-8"?>
<svg width="32px" height="32px" viewBox="0 0 32 32" version="1.1" xmlns="http://www.w3.org/2000/svg" xmlns:xlink="http://www.w3.org/1999/xlink">
    <!-- Generator: Sketch 59.1 (86144) - https://sketch.com -->
    <title>01</title>
    <desc>Created with Sketch.</desc>
    <g id="01" stroke="none" stroke-width="1" fill="none" fill-rule="evenodd">
        <g id="编组-2" fill-rule="nonzero">
            <g id="smile-fill备份-2">
                <rect id="矩形" fill="#000000" opacity="0" x="0" y="0" width="32" height="32"></rect>
                <path d="M15.6,2.4 C7.86875,2.4 1.6,8.66875 1.6,16.4 C1.6,24.13125 7.86875,30.4 15.6,30.4 C23.33125,30.4 29.6,24.13125 29.6,16.4 C29.6,8.66875 23.33125,2.4 15.6,2.4 Z" id="形状" fill="#FE725C"></path>
                <path d="M15.6,22.05625 C12.928125,22.05625 10.7375,19.953125 10.6,17.31875 C10.59375,17.175 10.70625,17.05625 10.85,17.05625 L20.35,17.05625 C20.49375,17.05625 20.60625,17.175 20.6,17.31875 C20.4625,19.953125 18.271875,22.05625 15.6,22.05625 Z" id="路径" fill="#FFFFFF"></path>
            </g>
            <path d="M24.7258913,12.8113684 C24.3372104,11.3156487 23.0224859,10.25 21.4949665,10.25 C19.9850478,10.25 18.6814129,11.2914955 18.2768174,12.76358 C18.1670434,13.1629828 18.4018339,13.5757521 18.8012367,13.685526 C19.2006394,13.7953 19.6134087,13.5605095 19.7231826,13.1611067 C19.9523938,12.3271424 20.6748002,11.75 21.4949665,11.75 C22.2729667,11.75 22.9622916,12.2693187 23.2269408,13.0327682 L23.2741087,13.1886316 C23.3782871,13.5895303 23.7877329,13.8300696 24.1886316,13.7258913 C24.5895303,13.6217129 24.8300696,13.2122671 24.7258913,12.8113684 Z" id="椭圆形备份" fill="#FFFFFF"></path>
            <path d="M13.7258913,12.8113684 C13.3372104,11.3156487 12.0224859,10.25 10.4949665,10.25 C8.98504784,10.25 7.68141285,11.2914955 7.27681736,12.76358 C7.1670434,13.1629828 7.40183392,13.5757521 7.80123667,13.685526 C8.20063941,13.7953 8.61340869,13.5605095 8.72318264,13.1611067 C8.9523938,12.3271424 9.67480023,11.75 10.4949665,11.75 C11.2729667,11.75 11.9622916,12.2693187 12.2269408,13.0327682 L12.2741087,13.1886316 C12.3782871,13.5895303 12.7877329,13.8300696 13.1886316,13.7258913 C13.5895303,13.6217129 13.8300696,13.2122671 13.7258913,12.8113684 Z" id="椭圆形备份-2" fill="#FFFFFF"></path>
        </g>
    </g>
</svg>